<svg width="17.500000" height="15.500000" viewBox="0 0 17.5 15.5" fill="none" xmlns="http://www.w3.org/2000/svg" xmlns:xlink="http://www.w3.org/1999/xlink">
	<desc>
			Created with Pixso.
	</desc>
	<defs/>
	<path id="shape (Граница)" d="M0.219666 12.2803C0.366089 12.4268 0.542908 12.5 0.75 12.5L16.75 12.5C16.9571 12.5 17.1339 12.4268 17.2803 12.2803C17.4268 12.1338 17.5 11.957 17.5 11.75L17.5 0.75C17.5 0.542969 17.4268 0.366211 17.2803 0.219727C17.1339 0.0732422 16.9571 0 16.75 0C16.6505 0 16.5549 0.019043 16.463 0.0571289C16.3711 0.0952148 16.29 0.149414 16.2197 0.219727L12.75 3.68945L9.28033 0.219727C9.13391 0.0732422 8.95709 0 8.75 0C8.54291 0 8.36609 0.0732422 8.21967 0.219727L4.75 3.68945L1.28033 0.219727C1.13391 0.0732422 0.957092 0 0.75 0C0.542908 0 0.366089 0.0732422 0.219666 0.219727C0.149353 0.290039 0.0951538 0.371094 0.0570679 0.462891C0.019043 0.554932 0 0.650635 0 0.75L0 11.75C0 11.957 0.0732422 12.1338 0.219666 12.2803ZM1.5 11L16 11L16 2.56055L13.2803 5.28027C13.1339 5.42676 12.9571 5.5 12.75 5.5C12.5429 5.5 12.3661 5.42676 12.2197 5.28027L8.75 1.81055L5.28033 5.28027C5.13391 5.42676 4.95709 5.5 4.75 5.5C4.54291 5.5 4.36609 5.42676 4.21967 5.28027L1.5 2.56055L1.5 11ZM0.75 14L16.75 14C17.17 14 17.5 14.3301 17.5 14.75C17.5 15.1699 17.17 15.5 16.75 15.5L0.75 15.5C0.330017 15.5 0 15.1699 0 14.75C0 14.3301 0.330017 14 0.75 14Z" fill="#7E74F1" fill-opacity="1.000000" fill-rule="evenodd"/>
</svg>
