<svg width="18.000000" height="18.000000" viewBox="0 0 18 18" fill="none" xmlns="http://www.w3.org/2000/svg" xmlns:xlink="http://www.w3.org/1999/xlink">
	<desc>
			Created with Pixso.
	</desc>
	<defs/>
	<path id="Icon" d="M10.0878 0.251709C9.43683 -0.0803223 8.55463 -0.0854492 7.89844 0.245605C5.60474 1.7373 3.17963 3.15918 1.10229 4.58472C0.793152 4.83447 0.57373 5.19702 0.577454 5.62402C0.581177 6.04932 0.805054 6.40723 1.11237 6.65283C3.17963 7.89844 5.60474 9.32031 7.84772 10.9529C8.49872 11.2849 9.38092 11.29 10.0371 10.9587C12.3953 9.32031 13.3653 8.84644 16.8333 6.61987C17.1424 6.37012 17.3618 6.00732 17.3581 5.58057C17.3543 5.15527 17.1305 4.79736 16.8232 4.55176C14.8204 3.15918 12.3953 1.7373 10.0878 0.251709ZM8.5661 1.50903C8.79858 1.3916 9.18048 1.39282 9.41455 1.51221C11.4252 2.68506 13.3653 4.10693 15.8238 5.59009C13.8503 6.95068 11.9102 8.37256 9.36945 9.69556C9.1369 9.81274 8.755 9.81177 8.52094 9.69238C6.20197 8.37256 4.14966 6.95068 2.11176 5.6145C4.14966 4.10693 5.60474 3.15918 8.5661 1.50903ZM17.8895 9.10278C18.1023 9.43604 17.9985 9.87451 17.6577 10.0823L11.7332 13.6965C10.9401 14.0598 9.96417 14.5337 9 14.5337C8.14557 14.5337 7.28186 14.1616 6.49927 13.8242C6.39874 13.781 6.29962 13.7383 6.20197 13.697L0.342468 10.1235C0.00158691 9.91577 -0.102295 9.47729 0.110413 9.14404C0.323181 8.81104 0.771973 8.70947 1.11285 8.91748L6.97235 12.4907C7.50024 12.8127 8.24969 13.1121 9 13.1118C9.75031 13.1118 10.4349 12.8125 10.9626 12.4905L16.887 8.87622C17.2279 8.66846 17.6767 8.76978 17.8895 9.10278ZM17.6577 13.6414C17.9985 13.4333 18.1023 12.9949 17.8895 12.6619C17.6766 12.3289 17.2278 12.2275 16.887 12.4353L11.7564 15.5662C11.0067 16.0237 10.0038 16.4294 8.96765 16.4294C7.9314 16.4297 6.92834 16.0239 6.17847 15.5664L1.11292 12.4766C0.772095 12.2686 0.323242 12.3701 0.110474 12.7031C-0.102295 13.0361 0.00152588 13.4746 0.342346 13.6826L5.40796 16.7725C5.55206 16.8328 5.73846 16.9224 5.95465 17.0261C6.76105 17.4136 7.98175 18 8.96765 18C10.2178 18 10.9401 17.531 12.5272 16.7722L17.6577 13.6414Z" fill="#7E74F1" fill-opacity="1.000000" fill-rule="evenodd"/>
</svg>
