<svg width="19.500000" height="19.500000" viewBox="0 0 19.5 19.5" fill="none" xmlns="http://www.w3.org/2000/svg" xmlns:xlink="http://www.w3.org/1999/xlink">
	<desc>
			Created with Pixso.
	</desc>
	<defs/>
	<path id="shape (Граница)" d="M7.62203 19.2686C8.31415 19.4229 9.02348 19.5 9.75 19.5C10.4765 19.5 11.1859 19.4229 11.878 19.2686C12.4454 19.1421 13.0011 18.9636 13.5454 18.7334C14.0954 18.5007 14.6158 18.2231 15.1065 17.9001C15.6564 17.5381 16.169 17.1196 16.6443 16.6443C17.1197 16.1689 17.5383 15.6562 17.9003 15.1062C18.2231 14.6157 18.5009 14.0955 18.7335 13.5454C18.9637 13.0012 19.142 12.4453 19.2685 11.8779C19.4228 11.1858 19.5 10.4766 19.5 9.75C19.5 9.02344 19.4228 8.31421 19.2685 7.62207C19.142 7.05469 18.9637 6.49878 18.7335 5.95459C18.5008 5.40454 18.2231 4.88428 17.9001 4.39355C17.5382 3.84375 17.1196 3.33105 16.6443 2.85571C16.169 2.38037 15.6564 1.96167 15.1064 1.59985C14.6158 1.27686 14.0954 0.999268 13.5454 0.766602C13.0011 0.536377 12.4453 0.35791 11.878 0.231445C11.1858 0.0771484 10.4765 0 9.75 0C9.02349 0 8.31419 0.0771484 7.62209 0.231445C7.0547 0.35791 6.49889 0.536377 5.95463 0.766602C5.40456 0.999268 4.8842 1.27686 4.39354 1.59985C3.84362 1.96191 3.33101 2.38037 2.85571 2.85571C2.38042 3.33105 1.96181 3.84351 1.59989 4.39355C1.27696 4.88428 0.999168 5.40454 0.76651 5.95459C0.536301 6.49902 0.357948 7.05469 0.231453 7.62207C0.0771484 8.31421 0 9.02344 0 9.75C0 10.4766 0.0771561 11.1858 0.231468 11.8779C0.357964 12.4453 0.536316 13.0012 0.76651 13.5454C0.999184 14.0955 1.27699 14.616 1.59993 15.1064C1.96184 15.6565 2.38043 16.1689 2.85571 16.6443C3.33105 17.1196 3.84371 17.5383 4.39368 17.9001C4.88431 18.2231 5.40462 18.501 5.95463 18.7334C6.49887 18.9636 7.05467 19.1421 7.62203 19.2686ZM11.7642 17.7537C12.1704 17.6516 12.5693 17.5176 12.961 17.3521C13.4213 17.1572 13.8571 16.9253 14.2683 16.6558C14.7389 16.3474 15.1773 15.99 15.5836 15.5837C15.99 15.1772 16.3474 14.7388 16.6557 14.2683C16.9252 13.8569 17.1573 13.4214 17.352 12.9609C17.5427 12.51 17.6913 12.0496 17.7979 11.5796C17.8782 11.2251 17.9346 10.8652 17.967 10.5L14.4801 10.5C14.4256 11.522 14.2587 12.5112 13.9794 13.4675C13.9347 13.6208 13.887 13.7732 13.8365 13.9246C13.6481 14.49 13.4221 15.0364 13.1586 15.564C12.9263 16.0293 12.6648 16.48 12.374 16.916C12.1795 17.2078 11.9762 17.4871 11.7642 17.7537ZM12.9777 10.5L6.5223 10.5C6.57861 11.438 6.74152 12.3433 7.01105 13.2153C7.03534 13.2939 7.06049 13.3723 7.08651 13.4504C7.2537 13.9519 7.45444 14.4365 7.68876 14.9045C7.89194 15.3103 8.12038 15.7034 8.37404 16.084C8.76324 16.6677 9.19034 17.1921 9.65533 17.6572C9.68659 17.627 9.81282 17.689 9.84467 17.6572C10.3097 17.1921 10.7368 16.6677 11.126 16.084C11.3796 15.7036 11.608 15.3105 11.8111 14.9048C12.0455 14.4368 12.2463 13.9519 12.4135 13.4504C12.4395 13.3723 12.4646 13.2939 12.4889 13.2153C12.7585 12.3433 12.9214 11.438 12.9777 10.5ZM12.9777 9L6.5223 9C6.57861 8.06201 6.74152 7.15674 7.01105 6.28467C7.03534 6.20605 7.06049 6.12769 7.08651 6.04956C7.25369 5.5481 7.45444 5.06348 7.68876 4.59546C7.89194 4.1897 8.12037 3.79663 8.37404 3.41602C8.76324 2.83228 9.19034 2.30786 9.65533 1.84277C9.6866 1.87305 9.81282 1.81104 9.84467 1.84277C10.3097 2.30786 10.7368 2.83228 11.126 3.41602C11.3796 3.79639 11.6079 4.18945 11.8111 4.59521C12.0455 5.06323 12.2463 5.5481 12.4135 6.04956C12.4395 6.12769 12.4646 6.20605 12.4889 6.28467C12.7585 7.15674 12.9214 8.06201 12.9777 9ZM14.4801 9L17.967 9C17.9346 8.63477 17.8782 8.2749 17.7979 7.92041C17.6913 7.45044 17.5427 6.98999 17.352 6.53906C17.1573 6.07861 16.9252 5.64307 16.6558 5.23169C16.3474 4.76123 15.99 4.32275 15.5836 3.91626C15.1773 3.51001 14.7389 3.15259 14.2683 2.84424C13.8571 2.57471 13.4213 2.34277 12.961 2.14795C12.5693 1.98242 12.1704 1.84839 11.7642 1.74634C11.9762 2.01294 12.1795 2.29224 12.374 2.58398C12.6648 3.02002 12.9263 3.4707 13.1586 3.93604C13.4221 4.46362 13.6481 5.01001 13.8365 5.57544C13.887 5.72681 13.9347 5.87915 13.9794 6.03247C14.2587 6.98877 14.4256 7.97803 14.4801 9ZM7.73576 1.74634C7.32963 1.84839 6.93069 1.98242 6.53896 2.14795C6.0787 2.34277 5.64297 2.57471 5.23174 2.84424C4.76118 3.15259 4.32272 3.51001 3.91637 3.91626C3.51002 4.32275 3.15265 4.76123 2.84427 5.23169C2.57478 5.64307 2.34269 6.07861 2.14802 6.53906C1.95729 6.98999 1.80866 7.45044 1.70214 7.92041C1.62181 8.2749 1.56542 8.63477 1.53297 9L5.01986 9C5.07441 7.97803 5.24131 6.98901 5.52057 6.03271C5.56532 5.87939 5.61296 5.72681 5.66349 5.57544C5.85184 5.01025 6.07774 4.46387 6.34117 3.93628C6.57355 3.47095 6.83515 3.02026 7.12596 2.58398C7.32051 2.29224 7.52377 2.01294 7.73576 1.74634ZM5.01986 10.5L1.53297 10.5C1.56542 10.8652 1.62181 11.2251 1.70215 11.5796C1.80867 12.0496 1.9573 12.51 2.14802 12.9609C2.3427 13.4214 2.5748 13.8572 2.84431 14.2683C3.15268 14.7388 3.51003 15.1772 3.91637 15.5837C4.32275 15.99 4.76123 16.3474 5.23183 16.6558C5.64302 16.9253 6.07874 17.1572 6.53896 17.3521C6.93069 17.5176 7.32963 17.6516 7.73576 17.7537C7.52377 17.4871 7.32051 17.2078 7.12596 16.916C6.83516 16.4797 6.57357 16.0291 6.34119 15.5637C6.07774 15.0361 5.85184 14.4897 5.66349 13.9246C5.61297 13.7732 5.56533 13.6206 5.52058 13.4675C5.24132 12.5112 5.07441 11.522 5.01986 10.5Z" fill="#7E74F1" fill-opacity="1.000000" fill-rule="evenodd"/>
</svg>
