<svg width="56.000000" height="56.000000" viewBox="0 0 56 56" fill="none" xmlns="http://www.w3.org/2000/svg" xmlns:xlink="http://www.w3.org/1999/xlink">
	<desc>
			Created with Pixso.
	</desc>
	<defs>
		<clipPath id="clip1_33">
			<rect id="mail" width="24.000000" height="24.000000" transform="translate(16.000000 16.000000)" fill="white" fill-opacity="0"/>
		</clipPath>
	</defs>
	<rect id="Icon" rx="16.000000" width="56.000000" height="56.000000" fill="#F5F3FE" fill-opacity="1.000000"/>
	<g clip-path="url(#clip1_33)">
		<path id="shape" d="M36 21C36.27 21 36.52 21.11 36.7 21.29C36.88 21.47 37 21.72 37 22L37 34C37 34.55 36.55 35 36 35L20 35C19.44 35 19 34.55 19 34L19 22C19 21.72 19.11 21.47 19.29 21.29C19.47 21.11 19.72 21 20 21L36 21ZM19.29 21.29L26.58 28.58C27.36 29.36 28.63 29.36 29.41 28.58L36.7 21.29" stroke="#7E74F1" stroke-opacity="1.000000" stroke-width="1.500000" stroke-linejoin="round"/>
	</g>
</svg>
