<svg width="56.000000" height="56.000000" viewBox="0 0 56 56" fill="none" xmlns="http://www.w3.org/2000/svg" xmlns:xlink="http://www.w3.org/1999/xlink">
	<desc>
			Created with Pixso.
	</desc>
	<defs>
		<clipPath id="clip1_39">
			<rect id="phone call" width="24.000000" height="24.000000" transform="translate(16.000000 16.000000)" fill="white" fill-opacity="0"/>
		</clipPath>
	</defs>
	<rect id="Icon" rx="16.000000" width="56.000000" height="56.000000" fill="#F5F3FE" fill-opacity="1.000000"/>
	<g clip-path="url(#clip1_39)">
		<path id="shape" d="M36.99 35.18C37 36.22 36.07 37.08 35.02 36.99C26 37 19 29.93 19 20.96C18.91 19.92 19.77 19 20.8 19L23.52 19C23.96 18.99 24.38 19.15 24.72 19.43C25.66 20.24 26.27 23 26.04 24.1C25.85 24.96 24.99 25.55 24.41 26.14C25.69 28.4 27.57 30.27 29.84 31.56C30.42 30.97 31.02 30.11 31.88 29.93C32.98 29.7 35.76 30.31 36.57 31.26C36.85 31.6 37.01 32.03 36.99 32.47L36.99 35.18ZM30.5 22.5C31.23 22.64 31.96 22.96 32.5 23.5C33.03 24.03 33.35 24.76 33.5 25.5M31 19C32.53 19.17 33.9 19.91 35 21C36.09 22.08 36.82 23.46 37 25" stroke="#7E74F1" stroke-opacity="1.000000" stroke-width="1.500000" stroke-linejoin="round"/>
	</g>
</svg>
