<svg width="12.000000" height="2.000000" viewBox="0 0 12 2" fill="none" xmlns="http://www.w3.org/2000/svg" xmlns:xlink="http://www.w3.org/1999/xlink">
	<desc>
			Created with Pixso.
	</desc>
	<defs/>
	<path id="Combined Shape" d="M1.198 -0.697021C0.536987 -0.697021 0 -0.159912 0 0.499023C0 1.15894 0.536987 1.69702 1.198 1.69702C1.85901 1.69702 2.396 1.15894 2.396 0.499023C2.396 -0.159912 1.85901 -0.697021 1.198 -0.697021ZM5.67709 -0.697021C5.01611 -0.697021 4.4791 -0.159912 4.4791 0.499023C4.4791 1.15894 5.01611 1.69702 5.67709 1.69702C6.3381 1.69702 6.87509 1.15894 6.87509 0.499023C6.87509 -0.159912 6.3381 -0.697021 5.67709 -0.697021ZM8.9585 0.499023C8.9585 -0.159912 9.49551 -0.697021 10.1565 -0.697021C10.8175 -0.697021 11.3545 -0.159912 11.3545 0.499023C11.3545 1.15894 10.8175 1.69702 10.1565 1.69702C9.49551 1.69702 8.9585 1.15894 8.9585 0.499023Z" clip-rule="evenodd" fill="#232E35" fill-opacity="1.000000" fill-rule="evenodd"/>
</svg>
